# xmcd
#
# Track frame offsets: 
#        150
#        13225
#        32482
#        43787
#        54425
#        71572
#        88777
#        99077
#        113865
#        129105
#        143022
#        161192
#        177092
#        199767
#
# Disc length: 3732 seconds
#
# Revision: 1
# Processed by: cddbd v1.5.2PL0 Copyright (c) Steve Scherf et al.
# Submitted via: ExactAudioCopy v1.0b1
#
DISCID=b50e920e
DTITLE=Asleep at the Wheel - Pasture Prime
DYEAR=1985
DGENRE=Country
TTITLE0=Across the alley from the Alamo
TTITLE1=Switchin' in the kitchen
TTITLE2=Write your own song
TTITLE3=Cotton eyed Joe
TTITLE4=Baby
TTITLE5=Shorty
TTITLE6=The chick's too young to fry
TTITLE7=Big Beaver
TTITLE8=This is the way we make a broken heart
TTITLE9=Deep water
TTITLE10=The natural thing to do
TTITLE11=Liar's moon
TTITLE12=That's your red wagon
TTITLE13=Bonus track (after 2minutes) Interview with Ray Benson
EXTD=
EXTT0=
EXTT1=
EXTT2=
EXTT3=
EXTT4=
EXTT5=
EXTT6=
EXTT7=
EXTT8=
EXTT9=
EXTT10=
EXTT11=
EXTT12=
EXTT13=
PLAYORDER=
